<svg width="28" height="28" viewBox="0 0 28 28" fill="none" xmlns="http://www.w3.org/2000/svg">
	<path
		d="M27.9999 22C27.9999 20.8133 27.6489 19.6533 26.9913 18.6666C26.3338 17.6799 25.3992 16.9109 24.3057 16.4567C23.2122 16.0026 22.0089 15.8838 20.8481 16.1153C19.6872 16.3468 18.6209 16.9182 17.784 17.7574C16.9471 18.5965 16.3771 19.6656 16.1462 20.8295C15.9153 21.9933 16.0338 23.1997 16.4868 24.2961C16.9397 25.3925 17.7067 26.3295 18.6909 26.9888C19.675 27.6481 20.832 28 22.0156 28C23.6022 27.9983 25.1233 27.3656 26.2452 26.2407C27.3671 25.1159 27.9981 23.5908 27.9999 22ZM26.0051 22C26.0014 22.7118 25.8061 23.4093 25.4397 24.019L20.0018 18.5669C20.6099 18.1996 21.3057 18.0037 22.0156 18C23.0733 18.0012 24.0874 18.423 24.8353 19.1729C25.5832 19.9228 26.0039 20.9395 26.0051 22V22ZM18.026 22C18.0297 21.2882 18.2251 20.5907 18.5914 19.981L24.0293 25.4331C23.4212 25.8004 22.7255 25.9963 22.0156 26C20.9578 25.9988 19.9438 25.577 19.1958 24.8271C18.4479 24.0772 18.0272 23.0605 18.026 22V22Z"
		fill="#F45B69" />
	<path
		d="M12.0418 0.000224299C10.3795 -0.00996541 8.73336 0.327133 7.20819 0.990039C5.68302 1.65295 4.31231 2.62712 3.18339 3.85049C2.05447 5.07386 1.19211 6.5196 0.651244 8.09558C0.110381 9.67156 -0.0971174 11.3432 0.04197 13.0041C0.181057 14.6649 0.663681 16.2784 1.45909 17.7419C2.25449 19.2054 3.34524 20.4867 4.66182 21.5042C5.9784 22.5217 7.49195 23.2531 9.10602 23.6517C10.7201 24.0503 12.3993 24.1075 14.0366 23.8195V21.7985C12.6705 22.0779 11.2612 22.0669 9.89961 21.7665C8.53801 21.466 7.25436 20.8827 6.1315 20.0541C5.00863 19.2255 4.0715 18.1701 3.38056 16.956C2.68963 15.7419 2.26025 14.3961 2.12012 13.0053C1.97999 11.6145 2.13224 10.2098 2.56703 8.88163C3.00182 7.5535 3.7095 6.33152 4.6444 5.29453C5.5793 4.25754 6.72065 3.4286 7.99481 2.86117C9.26897 2.29375 10.6476 2.00046 12.0418 2.00022V12.0002L16.3735 16.3435C17.1136 15.5995 17.993 15.0095 18.9613 14.6073C19.9296 14.2052 20.9676 13.9989 22.0157 14.0002H23.8302C24.1327 12.2789 24.0543 10.5119 23.6005 8.82429C23.1466 7.13669 22.3285 5.56968 21.2039 4.23412C20.0793 2.89856 18.6758 1.82707 17.0925 1.09544C15.5093 0.363813 13.7851 -0.0100745 12.0418 0.000224299V0.000224299Z"
		fill="#F45B69" />
</svg>
