<svg width="24" height="24" viewBox="0 0 24 24" fill="none" xmlns="http://www.w3.org/2000/svg">
	<path
		d="M12.0001 22.5C10.4972 22.4999 9.0291 22.0483 7.786 21.2037C6.5429 20.3592 5.5822 19.1606 5.02844 17.7635C4.47468 16.3664 4.35342 14.8352 4.68038 13.3683C5.00733 11.9015 5.76742 10.5667 6.86209 9.537C8.20409 8.274 11.5001 6 11.0001 1C17.0001 5 20.0001 9 14.0001 15C15.0001 15 16.5001 15 19.0001 12.53C19.2701 13.303 19.5001 14.134 19.5001 15C19.5001 16.9891 18.7099 18.8968 17.3034 20.3033C15.8969 21.7098 13.9892 22.5 12.0001 22.5Z"
		fill="#F45B69" />
</svg>
