<svg width="92" height="40" viewBox="0 0 92 40" fill="none" xmlns="http://www.w3.org/2000/svg">
	<g clip-path="url(#clip0_45_36)">
		<path
			d="M38.125 15H26.25V19.375C26.25 22.4766 23.7266 25 20.625 25C17.5234 25 15 22.4766 15 19.375V9.87502L9.9297 12.9219C8.42189 13.8203 7.50001 15.4531 7.50001 17.2031V20.8985L1.25001 24.5078C0.0546993 25.1953 -0.359363 26.7266 0.335949 27.9219L6.58595 38.75C7.27345 39.9453 8.8047 40.3516 10 39.6641L18.0781 35H28.75C31.5078 35 33.75 32.7578 33.75 30H35C36.3828 30 37.5 28.8828 37.5 27.5V22.5H38.125C39.1641 22.5 40 21.6641 40 20.625V16.875C40 15.836 39.1641 15 38.125 15ZM49.6641 12.0781L43.4141 1.25002C42.7266 0.0547065 41.1953 -0.351544 40 0.335957L31.9219 5.00002H23.9375C23 5.00002 22.0859 5.26564 21.2891 5.75783L18.6719 7.39064C17.9375 7.84377 17.5 8.64846 17.5 9.50783V19.375C17.5 21.1016 18.8984 22.5 20.625 22.5C22.3516 22.5 23.75 21.1016 23.75 19.375V12.5H38.125C40.5391 12.5 42.5 14.461 42.5 16.875V19.1016L48.75 15.4922C49.9453 14.7969 50.3516 13.2735 49.6641 12.0781V12.0781Z"
			fill="#EEFBFB" />
	</g>
	<path
		d="M73.16 13C73.3067 13 73.4333 13.0533 73.54 13.16C73.6467 13.2667 73.7 13.3933 73.7 13.54V26.46C73.7 26.6067 73.6467 26.7333 73.54 26.84C73.4333 26.9467 73.3067 27 73.16 27H69.04C68.8933 27 68.7667 26.9467 68.66 26.84C68.5533 26.7333 68.5 26.6067 68.5 26.46V22.2H64.5V26.46C64.5 26.6067 64.4467 26.7333 64.34 26.84C64.2333 26.9467 64.1067 27 63.96 27H59.84C59.6933 27 59.5667 26.9533 59.46 26.86C59.3533 26.7533 59.3 26.62 59.3 26.46V13.54C59.3 13.3933 59.3533 13.2667 59.46 13.16C59.5667 13.0533 59.6933 13 59.84 13H63.96C64.1067 13 64.2333 13.0533 64.34 13.16C64.4467 13.2667 64.5 13.3933 64.5 13.54V17.64H68.5V13.54C68.5 13.3933 68.5533 13.2667 68.66 13.16C68.7667 13.0533 68.8933 13 69.04 13H73.16ZM90.1522 13C90.2989 13 90.4255 13.0533 90.5322 13.16C90.6389 13.2667 90.6922 13.3933 90.6922 13.54V26.46C90.6922 26.6067 90.6389 26.7333 90.5322 26.84C90.4255 26.9467 90.2989 27 90.1522 27H86.0322C85.8855 27 85.7589 26.9467 85.6522 26.84C85.5455 26.7333 85.4922 26.6067 85.4922 26.46V22.2H81.4922V26.46C81.4922 26.6067 81.4389 26.7333 81.3322 26.84C81.2255 26.9467 81.0989 27 80.9522 27H76.8322C76.6855 27 76.5589 26.9533 76.4522 26.86C76.3455 26.7533 76.2922 26.62 76.2922 26.46V13.54C76.2922 13.3933 76.3455 13.2667 76.4522 13.16C76.5589 13.0533 76.6855 13 76.8322 13H80.9522C81.0989 13 81.2255 13.0533 81.3322 13.16C81.4389 13.2667 81.4922 13.3933 81.4922 13.54V17.64H85.4922V13.54C85.4922 13.3933 85.5455 13.2667 85.6522 13.16C85.7589 13.0533 85.8855 13 86.0322 13H90.1522Z"
		fill="#EEFBFB" />
	<defs>
		<clipPath id="clip0_45_36">
			<rect width="50" height="40" fill="#EEFBFB" />
		</clipPath>
	</defs>
</svg>
