<svg width="13" height="9" viewBox="0 0 13 9" fill="none" xmlns="http://www.w3.org/2000/svg">
	<path
		d="M12.6389 2.18281L6.13691 8.62289C5.89306 8.86435 5.56236 9 5.21754 9C4.87272 9 4.54202 8.86435 4.29816 8.62289L0.396994 4.75884C0.272793 4.64003 0.173727 4.4979 0.105575 4.34076C0.0374224 4.18362 0.00154951 4.0146 4.9098e-05 3.84358C-0.00145131 3.67256 0.0314511 3.50295 0.0968359 3.34466C0.162221 3.18637 0.258779 3.04256 0.380876 2.92163C0.502973 2.80069 0.648163 2.70505 0.807977 2.64029C0.96779 2.57553 1.13902 2.54294 1.31169 2.54442C1.48435 2.54591 1.65499 2.58144 1.81364 2.64894C1.9723 2.71645 2.11579 2.81457 2.23574 2.93759L5.21364 5.89101L10.7962 0.361561C11.0415 0.126939 11.3699 -0.00288595 11.7109 4.86904e-05C12.0519 0.00298333 12.378 0.138442 12.6191 0.377251C12.8602 0.616059 12.997 0.939108 13 1.27682C13.0029 1.61454 12.8718 1.93989 12.635 2.18281H12.6389Z"
		fill="#12232E" />
</svg>
