<svg width="40" height="40" viewBox="0 0 40 40" fill="none" xmlns="http://www.w3.org/2000/svg">
	<rect width="40" height="40" fill="#EEFBFB" />
	<path
		d="M19.8125 19.4705C22.1942 19.4705 24.125 17.5743 24.125 15.2353C24.125 12.8962 22.1942 11 19.8125 11C17.4308 11 15.5 12.8962 15.5 15.2353C15.5 17.5743 17.4308 19.4705 19.8125 19.4705Z"
		fill="#203647" />
	<path
		d="M29 26.8822V27.941C29 28.2218 28.8815 28.4911 28.6705 28.6897C28.4595 28.8883 28.1734 28.9998 27.875 28.9998H12.125C11.8266 28.9998 11.5405 28.8883 11.3295 28.6897C11.1185 28.4911 11 28.2218 11 27.941V26.8822C11 25.1973 11.7112 23.5814 12.977 22.39C14.2429 21.1986 15.9598 20.5293 17.75 20.5293H22.25C24.0402 20.5293 25.7571 21.1986 27.023 22.39C28.2888 23.5814 29 25.1973 29 26.8822V26.8822Z"
		fill="#203647" />
</svg>
