<svg width="24" height="24" viewBox="0 0 24 24" fill="none" xmlns="http://www.w3.org/2000/svg">
	<g clip-path="url(#clip0_137_211)">
		<path
			d="M22.5098 13.7601C22.139 13.2482 21.9393 12.6322 21.9393 12.0001C21.9393 11.368 22.139 10.752 22.5098 10.2401L23.2698 9.19011C23.3628 9.0619 23.4239 8.91345 23.4483 8.75698C23.4726 8.60051 23.4594 8.4405 23.4098 8.29011C23.3598 8.1413 23.2759 8.0061 23.1649 7.89507C23.0539 7.78405 22.9187 7.70021 22.7698 7.65011L21.5399 7.25011C20.9373 7.05575 20.4121 6.67496 20.04 6.16271C19.668 5.65045 19.4683 5.03323 19.4698 4.40011V3.10011C19.4697 2.94228 19.4323 2.78671 19.3605 2.64614C19.2887 2.50556 19.1847 2.38397 19.0569 2.29131C18.9291 2.19865 18.7813 2.13755 18.6253 2.11301C18.4694 2.08847 18.3099 2.10118 18.1598 2.15011L16.9198 2.55011C16.3179 2.74491 15.6697 2.74439 15.068 2.54862C14.4663 2.35285 13.942 1.97186 13.5698 1.46011L12.8098 0.410112C12.7128 0.288421 12.5896 0.190158 12.4494 0.122624C12.3091 0.0550893 12.1555 0.0200195 11.9998 0.0200195C11.8442 0.0200195 11.6906 0.0550893 11.5503 0.122624C11.4101 0.190158 11.2869 0.288421 11.1898 0.410112L10.4298 1.46011C10.0577 1.97186 9.53337 2.35285 8.93169 2.54862C8.33001 2.74439 7.68184 2.74491 7.07985 2.55011L5.83985 2.15011C5.68979 2.10118 5.53028 2.08847 5.37436 2.11301C5.21845 2.13755 5.07055 2.19865 4.94278 2.29131C4.81501 2.38397 4.71098 2.50556 4.63921 2.64614C4.56744 2.78671 4.52997 2.94228 4.52985 3.10011V4.40011C4.53138 5.03323 4.33171 5.65045 3.95965 6.16271C3.58759 6.67496 3.06239 7.05575 2.45985 7.25011L1.22985 7.65011C1.08104 7.70021 0.945837 7.78405 0.834811 7.89507C0.723785 8.0061 0.639946 8.1413 0.58985 8.29011C0.540261 8.4405 0.527095 8.60051 0.551434 8.75698C0.575774 8.91345 0.636923 9.0619 0.72985 9.19011L1.48985 10.2401C1.86069 10.752 2.06036 11.368 2.06036 12.0001C2.06036 12.6322 1.86069 13.2482 1.48985 13.7601L0.72985 14.8101C0.636923 14.9383 0.575774 15.0868 0.551434 15.2432C0.527095 15.3997 0.540261 15.5597 0.58985 15.7101C0.639946 15.8589 0.723785 15.9941 0.834811 16.1052C0.945837 16.2162 1.08104 16.3 1.22985 16.3501L2.45985 16.7501C3.06239 16.9445 3.58759 17.3253 3.95965 17.8375C4.33171 18.3498 4.53138 18.967 4.52985 19.6001V20.9001C4.52997 21.0579 4.56744 21.2135 4.63921 21.3541C4.71098 21.4947 4.81501 21.6163 4.94278 21.7089C5.07055 21.8016 5.21845 21.8627 5.37436 21.8872C5.53028 21.9118 5.68979 21.899 5.83985 21.8501L7.06985 21.4501C7.67312 21.252 8.32375 21.2509 8.92772 21.4468C9.5317 21.6427 10.0577 22.0256 10.4298 22.5401L11.1898 23.5901C11.2832 23.7172 11.4052 23.8206 11.5459 23.8918C11.6866 23.9631 11.8421 24.0002 11.9998 24.0002C12.1576 24.0002 12.3131 23.9631 12.4538 23.8918C12.5945 23.8206 12.7165 23.7172 12.8098 23.5901L13.5698 22.5401C13.9426 22.0263 14.4687 21.644 15.0724 21.4482C15.6762 21.2523 16.3265 21.253 16.9298 21.4501L18.1598 21.8501C18.3099 21.899 18.4694 21.9118 18.6253 21.8872C18.7813 21.8627 18.9291 21.8016 19.0569 21.7089C19.1847 21.6163 19.2887 21.4947 19.3605 21.3541C19.4323 21.2135 19.4697 21.0579 19.4698 20.9001V19.6001C19.4683 18.967 19.668 18.3498 20.04 17.8375C20.4121 17.3253 20.9373 16.9445 21.5399 16.7501L22.7698 16.3501C22.9187 16.3 23.0539 16.2162 23.1649 16.1052C23.2759 15.9941 23.3598 15.8589 23.4098 15.7101C23.4594 15.5597 23.4726 15.3997 23.4483 15.2432C23.4239 15.0868 23.3628 14.9383 23.2698 14.8101L22.5098 13.7601ZM16.7098 10.7071L11.7098 15.7071C11.5223 15.8946 11.268 15.9999 11.0028 15.9999C10.7377 15.9999 10.4834 15.8946 10.2958 15.7071L7.29585 12.7071C7.20034 12.6149 7.12416 12.5045 7.07175 12.3825C7.01934 12.2605 6.99175 12.1293 6.9906 11.9965C6.98945 11.8637 7.01475 11.7321 7.06503 11.6092C7.11531 11.4863 7.18956 11.3746 7.28345 11.2807C7.37735 11.1868 7.489 11.1126 7.6119 11.0623C7.73479 11.012 7.86647 10.9867 7.99925 10.9879C8.13203 10.989 8.26325 11.0166 8.38525 11.069C8.50726 11.1214 8.6176 11.1976 8.70985 11.2931L10.9998 13.5861L15.2928 9.29311C15.4815 9.11095 15.7341 9.01016 15.9963 9.01244C16.2584 9.01472 16.5093 9.11989 16.6947 9.30529C16.8801 9.4907 16.9852 9.74151 16.9875 10.0037C16.9898 10.2659 16.889 10.5185 16.7069 10.7071H16.7098Z"
			fill="#007CC7" />
		<path
			d="M16.7098 10.7071L11.7098 15.7071C11.5223 15.8946 11.268 15.9999 11.0028 15.9999C10.7377 15.9999 10.4834 15.8946 10.2958 15.7071L7.29585 12.7071C7.20034 12.6149 7.12416 12.5045 7.07175 12.3825C7.01934 12.2605 6.99175 12.1293 6.9906 11.9965C6.98945 11.8637 7.01475 11.7321 7.06503 11.6092C7.11531 11.4863 7.18956 11.3746 7.28345 11.2807C7.37735 11.1868 7.489 11.1126 7.6119 11.0623C7.73479 11.012 7.86647 10.9867 7.99925 10.9879C8.13203 10.989 8.26325 11.0166 8.38525 11.069C8.50726 11.1214 8.6176 11.1976 8.70985 11.2931L10.9998 13.5861L15.2928 9.29311C15.4815 9.11095 15.7341 9.01016 15.9963 9.01244C16.2584 9.01472 16.5093 9.11989 16.6947 9.30529C16.8801 9.4907 16.9852 9.74151 16.9875 10.0037C16.9898 10.2659 16.889 10.5185 16.7069 10.7071H16.7098Z"
			fill="#EEFBFB" />
	</g>
	<defs>
		<clipPath id="clip0_137_211">
			<rect width="24" height="24" fill="white" />
		</clipPath>
	</defs>
</svg>
